<svg width="24" height="24" viewBox="0 0 24 24" fill="none" xmlns="http://www.w3.org/2000/svg">
<path d="M17 10C16.7 10 16.5 9.9 16.3 9.7L11.3 4.7C10.9 4.3 10.9 3.7 11.3 3.3C11.7 2.9 12.3 2.9 12.7 3.3L17.7 8.3C18.1 8.7 18.1 9.3 17.7 9.7C17.5 9.9 17.3 10 17 10V10Z" fill="white"/>
<path d="M7 10C6.7 10 6.5 9.9 6.3 9.7C5.9 9.3 5.9 8.7 6.3 8.3L11.3 3.3C11.7 2.9 12.3 2.9 12.7 3.3C13.1 3.7 13.1 4.3 12.7 4.7L7.7 9.7C7.5 9.9 7.3 10 7 10V10Z" fill="white"/>
<path d="M12 21C11.4 21 11 20.6 11 20V4C11 3.4 11.4 3 12 3C12.6 3 13 3.4 13 4V20C13 20.6 12.6 21 12 21Z" fill="white"/>
</svg>
