<svg width="496" height="106" viewBox="0 0 496 106" fill="none" xmlns="http://www.w3.org/2000/svg">
<path d="M5 51.3451C20.3271 51.3451 34.8659 49.4379 50.0799 47.4179C90.3191 42.0753 130.4 35.2988 170.366 28.1638C193.498 24.0342 216.713 20.1043 239.766 15.5641C256.956 12.1785 273.979 7.98653 291.364 5.63704C291.643 5.59936 299.173 4.22273 296.403 5.63704C290.102 8.85491 284.006 12.3949 277.561 15.3459C245.169 30.1776 210.616 41.0168 177.377 53.8541C155.963 62.1247 134.486 70.2882 113.181 78.8353C100.516 83.916 87.3151 89.4284 76.0433 97.2167C72.3647 99.7584 71.9687 101.187 77.1936 100.98C85.4685 100.653 93.6717 98.3884 101.623 96.344C123.394 90.7466 145.029 84.6329 166.806 79.0535C261.971 54.6716 358.339 35.4884 455.032 18.1822C598.135 -7.43048 258.276 86.0837 401.751 62.653" stroke="white" stroke-opacity="0.05" stroke-width="9" stroke-linecap="round"/>
</svg>
