<svg width="32" height="32" viewBox="0 0 32 32" fill="none" xmlns="http://www.w3.org/2000/svg">
<path d="M11.4894 30.0001C10.7626 29.9988 10.0548 29.7681 9.46688 29.3407C9.01312 29.0129 8.64357 28.5821 8.38858 28.0837C8.13358 27.5854 8.00042 27.0337 8.00001 26.4738C7.99837 25.8158 8.20345 25.1738 8.5863 24.6385C8.96916 24.1033 9.51044 23.7018 10.1338 23.4907L13.3125 22.4207C13.5142 22.3519 13.6891 22.2213 13.8125 22.0476C13.9359 21.8739 14.0015 21.6657 14 21.4526V5.7501C13.9991 5.30446 14.1466 4.87119 14.4192 4.51867C14.6918 4.16615 15.0741 3.91443 15.5056 3.80322L22.28 2.04447C22.4832 1.9918 22.6958 1.98636 22.9014 2.02856C23.1071 2.07076 23.3003 2.15949 23.4664 2.28794C23.6324 2.41639 23.7668 2.58116 23.8593 2.7696C23.9518 2.95805 24 3.16517 24 3.3751V6.98447C24.0012 7.43149 23.853 7.86608 23.579 8.21926C23.305 8.57243 22.9208 8.82394 22.4875 8.93385L16.7594 10.3795C16.5407 10.4364 16.3472 10.5647 16.2096 10.744C16.0721 10.9233 15.9983 11.1435 16 11.3695V26.5001C16.0017 27.1318 15.8048 27.7482 15.4372 28.2619C15.0695 28.7757 14.5498 29.1609 13.9513 29.3632L12.6094 29.8151C12.2486 29.9373 11.8703 29.9998 11.4894 30.0001V30.0001Z" fill="white"/>
</svg>
