<svg width="20" height="20" viewBox="0 0 20 20" fill="none" xmlns="http://www.w3.org/2000/svg">
<path fill-rule="evenodd" clip-rule="evenodd" d="M5 1.25C4.33696 1.25 3.70107 1.48047 3.23223 1.8907C2.76339 2.30094 2.5 2.85734 2.5 3.4375L2.5 16.5625C2.5 17.1427 2.76339 17.6991 3.23223 18.1093C3.70107 18.5195 4.33696 18.75 5 18.75C5.66304 18.75 6.29893 18.5195 6.76777 18.1093C7.23661 17.6991 7.5 17.1427 7.5 16.5625V3.4375C7.5 2.85734 7.23661 2.30094 6.76777 1.8907C6.29893 1.48047 5.66304 1.25 5 1.25M17.5 3.4375V16.5625C17.5 17.1427 17.2366 17.6991 16.7678 18.1093C16.2989 18.5195 15.663 18.75 15 18.75C14.337 18.75 13.7011 18.5195 13.2322 18.1093C12.7634 17.6991 12.5 17.1427 12.5 16.5625V3.4375C12.5 2.85734 12.7634 2.30094 13.2322 1.8907C13.7011 1.48047 14.337 1.25 15 1.25C15.663 1.25 16.2989 1.48047 16.7678 1.8907C17.2366 2.30094 17.5 2.85734 17.5 3.4375" fill="black"/>
</svg>
