<svg width="20" height="20" viewBox="0 0 20 20" fill="none" xmlns="http://www.w3.org/2000/svg">
<path d="M3.75 2.92412C3.75 2.81846 3.75864 2.71298 3.77584 2.60873L3.79545 2.48985C3.82925 2.28502 3.90811 2.09026 4.02634 1.91962V1.91962C4.1314 1.76799 4.26536 1.63859 4.42053 1.53884L4.44011 1.52625C4.62306 1.40863 4.82915 1.33169 5.04442 1.30062L5.14735 1.28576C5.31134 1.2621 5.47817 1.26677 5.64058 1.29959V1.29959C5.79844 1.33148 5.94987 1.38951 6.08862 1.47128L6.45968 1.68994L8.73387 3.05866L12.9919 5.69832L17.9772 8.75982C18.4574 9.05469 18.75 9.57774 18.75 10.1412V10.1412C18.75 10.7292 18.4316 11.2712 17.9179 11.5573L12.9919 14.3017L8.05645 17.3324L6.45968 18.3101L6.32526 18.3949C6.15776 18.5007 5.97531 18.5807 5.78403 18.6322L5.68418 18.6591C5.46212 18.7189 5.2294 18.7278 5.00344 18.685L4.98233 18.681C4.71458 18.6303 4.46654 18.5052 4.2666 18.32V18.32C4.08644 18.1532 3.95158 17.9433 3.87464 17.7101L3.84285 17.6138C3.78135 17.4274 3.75 17.2324 3.75 17.0361V2.92412Z" fill="black"/>
</svg>
