<svg width="32" height="32" viewBox="0 0 32 32" fill="none" xmlns="http://www.w3.org/2000/svg">
<path opacity="0.24" d="M28 9.52897C28 9.43345 27.9926 9.33808 27.9778 9.2437L27.9591 9.12402C27.9308 8.94288 27.8641 8.76988 27.7634 8.61663V8.61663C27.6704 8.4751 27.5486 8.35209 27.4085 8.25704V8.25704C27.2471 8.14759 27.0612 8.07415 26.8685 8.0448L26.7907 8.03296C26.6475 8.01117 26.5016 8.01547 26.36 8.04565V8.04565C26.2243 8.07459 26.0946 8.12686 25.9767 8.20014L25.6516 8.40223L23.6806 9.65363L19.9903 12.067L16 14.5V17.5L19.9903 19.933L24.2677 22.7039L25.6516 23.5978L25.773 23.6787C25.9149 23.7731 26.0706 23.8449 26.2345 23.8915L26.3206 23.916C26.5148 23.9712 26.7194 23.9794 26.9174 23.9398V23.9398C27.1587 23.8916 27.382 23.7732 27.558 23.6013V23.6013C27.7098 23.453 27.8235 23.2683 27.8868 23.0658L27.9209 22.9568C27.9733 22.7892 28 22.6146 28 22.4389V9.52897Z" fill="white"/>
<path opacity="0.72" d="M16 9.52897C16 9.43345 15.9926 9.33808 15.9778 9.2437L15.9591 9.12402C15.9308 8.94288 15.8641 8.76988 15.7634 8.61663V8.61663C15.6704 8.4751 15.5486 8.35209 15.4085 8.25704V8.25704C15.2471 8.14759 15.0612 8.07415 14.8685 8.0448L14.7907 8.03296C14.6475 8.01117 14.5016 8.01547 14.36 8.04565V8.04565C14.2243 8.07459 14.0946 8.12686 13.9767 8.20014L13.6516 8.40223L11.6806 9.65363L7.99032 12.067L3.69514 14.8497C3.26167 15.1305 3 15.6118 3 16.1283V16.1283C3 16.6683 3.28593 17.168 3.75154 17.4417L7.99032 19.933L12.2677 22.7039L13.6516 23.5978L13.773 23.6787C13.9149 23.7731 14.0706 23.8449 14.2345 23.8915L14.3206 23.916C14.5148 23.9712 14.7194 23.9794 14.9174 23.9398V23.9398C15.1587 23.8916 15.382 23.7732 15.558 23.6013V23.6013C15.7098 23.453 15.8235 23.2683 15.8868 23.0658L15.9209 22.9568C15.9733 22.7892 16 22.6146 16 22.4389V9.52897Z" fill="white"/>
</svg>
