<svg width="24" height="24" viewBox="0 0 24 24" fill="none" xmlns="http://www.w3.org/2000/svg">
<path d="M12.375 19.509C12.1352 19.5088 11.9017 19.4318 11.7089 19.2891L11.678 19.2652L7.39078 15.7496H4.125C3.82663 15.7496 3.54048 15.6311 3.3295 15.4201C3.11853 15.2091 3 14.923 3 14.6246V9.37507C3 9.0767 3.11853 8.79055 3.3295 8.57957C3.54048 8.36859 3.82663 8.25007 4.125 8.25007H7.38984L11.677 4.73444L11.708 4.71053C11.8756 4.58713 12.0741 4.51263 12.2815 4.49534C12.489 4.47805 12.6971 4.51864 12.8828 4.6126C13.0686 4.70655 13.2246 4.85019 13.3335 5.02753C13.4425 5.20487 13.5001 5.40896 13.5 5.6171V18.383C13.5 18.6814 13.3815 18.9676 13.1705 19.1785C12.9595 19.3895 12.6734 19.508 12.375 19.508V19.509ZM16.5 15.7501C16.3721 15.75 16.2463 15.7172 16.1346 15.6548C16.023 15.5924 15.9291 15.5025 15.862 15.3936C15.7948 15.2848 15.7567 15.1605 15.7511 15.0327C15.7455 14.9049 15.7728 14.7778 15.8302 14.6635C16.275 13.7776 16.5005 12.8823 16.5005 12.0001C16.5005 11.0926 16.282 10.2226 15.8325 9.34085C15.7464 9.16417 15.733 8.96074 15.7954 8.77434C15.8577 8.58794 15.9907 8.43345 16.1658 8.34413C16.3409 8.25481 16.5441 8.23779 16.7316 8.29672C16.9191 8.35566 17.0759 8.48585 17.1684 8.65928C17.7281 9.75757 18 10.8502 18 12.0001C18 13.1171 17.7187 14.2398 17.1703 15.3366C17.1079 15.4609 17.0122 15.5654 16.8938 15.6384C16.7754 15.7114 16.6391 15.7501 16.5 15.7501Z" fill="white"/>
<path d="M18.75 17.9999C18.6183 18 18.4889 17.9655 18.3748 17.8997C18.2607 17.8339 18.1659 17.7392 18.1 17.6252C18.0341 17.5112 17.9994 17.3818 17.9994 17.2501C17.9994 17.1184 18.034 16.989 18.0999 16.8749C18.9844 15.3304 19.5 14.0367 19.5 11.9999C19.5 9.93181 18.9872 8.64744 18.1017 7.12728C18.0104 6.95588 17.989 6.7557 18.0423 6.56889C18.0955 6.38208 18.2191 6.22321 18.3871 6.12572C18.5551 6.02823 18.7544 5.99972 18.943 6.04621C19.1316 6.09269 19.2948 6.21054 19.3983 6.37494C20.3869 8.06994 21 9.60369 21 11.9999C21 14.3606 20.3878 15.9018 19.4007 17.6249C19.3347 17.7391 19.2399 17.8339 19.1257 17.8997C19.0114 17.9656 18.8819 18.0001 18.75 17.9999Z" fill="white"/>
</svg>
